<svg xmlns="http://www.w3.org/2000/svg" width="24" height="24" viewBox="0 0 24 24"><mask id="lineMdEmailArrowRight0"><g fill="none" stroke="#fff" stroke-linecap="round" stroke-linejoin="round" stroke-width="2"><path stroke-dasharray="64" stroke-dashoffset="64" d="M4 5h16c0.55 0 1 0.45 1 1v12c0 0.55 -0.45 1 -1 1h-16c-0.55 0 -1 -0.45 -1 -1v-12c0 -0.55 0.45 -1 1 -1Z"><animate fill="freeze" attributeName="stroke-dashoffset" dur="0.6s" values="64;0"/></path><path stroke-dasharray="24" stroke-dashoffset="24" d="M3 6.5l9 5.5l9 -5.5"><animate fill="freeze" attributeName="stroke-dashoffset" begin="0.6s" dur="0.2s" values="24;0"/></path><path fill="#000" fill-opacity="0" stroke="none" d="M19 13c3.31 0 6 2.69 6 6c0 3.31 -2.69 6 -6 6c-3.31 0 -6 -2.69 -6 -6c0 -3.31 2.69 -6 6 -6Z"><set fill="freeze" attributeName="fill-opacity" begin="0.8s" to="1"/></path><path stroke-dasharray="6" stroke-dashoffset="6" d="M16 19h5"><animate fill="freeze" attributeName="stroke-dashoffset" begin="0.8s" dur="0.2s" values="6;0"/></path><path stroke-dasharray="4" stroke-dashoffset="4" d="M21 19l-2 2M21 19l-2 -2"><animate fill="freeze" attributeName="stroke-dashoffset" begin="1s" dur="0.2s" values="4;0"/></path></g></mask><rect width="24" height="24" fill="#ea580c" mask="url(#lineMdEmailArrowRight0)"/></svg>